<?xml version="1.0" encoding="UTF-8" standalone="no"?>
<!-- Created with Inkscape (http://www.inkscape.org/) -->

<svg
   xmlns:dc="http://purl.org/dc/elements/1.1/"
   xmlns:cc="http://creativecommons.org/ns#"
   xmlns:rdf="http://www.w3.org/1999/02/22-rdf-syntax-ns#"
   xmlns:svg="http://www.w3.org/2000/svg"
   xmlns="http://www.w3.org/2000/svg"
   xmlns:sodipodi="http://sodipodi.sourceforge.net/DTD/sodipodi-0.dtd"
   xmlns:inkscape="http://www.inkscape.org/namespaces/inkscape"
   width="25.400002mm"
   height="33.32452mm"
   viewBox="0 0 90.000005 118.07901"
   id="svg2"
   version="1.1"
   inkscape:version="0.91 r13725"
   sodipodi:docname="logo.svg">
  <defs
     id="defs4" />
  <sodipodi:namedview
     id="base"
     pagecolor="#ffffff"
     bordercolor="#666666"
     borderopacity="1.0"
     inkscape:pageopacity="0.0"
     inkscape:pageshadow="2"
     inkscape:zoom="3.959798"
     inkscape:cx="62.006116"
     inkscape:cy="50.884283"
     inkscape:document-units="px"
     inkscape:current-layer="layer1"
     showgrid="true"
     inkscape:snap-bbox="true"
     inkscape:bbox-nodes="true"
     fit-margin-top="0"
     fit-margin-left="0"
     fit-margin-right="0"
     fit-margin-bottom="0"
     inkscape:window-width="1600"
     inkscape:window-height="837"
     inkscape:window-x="-8"
     inkscape:window-y="-8"
     inkscape:window-maximized="1">
    <inkscape:grid
       type="xygrid"
       id="grid4140"
       originx="-160"
       originy="-541.92186" />
  </sodipodi:namedview>
  <metadata
     id="metadata7">
    <rdf:RDF>
      <cc:Work
         rdf:about="">
        <dc:format>image/svg+xml</dc:format>
        <dc:type
           rdf:resource="http://purl.org/dc/dcmitype/StillImage" />
        <dc:title></dc:title>
      </cc:Work>
    </rdf:RDF>
  </metadata>
  <g
     inkscape:label="Layer 1"
     inkscape:groupmode="layer"
     id="layer1"
     transform="translate(-160,-392.36133)">
    <text
       xml:space="preserve"
       style="font-style:normal;font-weight:normal;font-size:32.12269211px;line-height:125%;font-family:sans-serif;letter-spacing:0px;word-spacing:0px;fill:#000000;fill-opacity:1;stroke:none;stroke-width:1px;stroke-linecap:butt;stroke-linejoin:miter;stroke-opacity:1"
       x="157.05124"
       y="510.0639"
       id="text4136"
       sodipodi:linespacing="125%"><tspan
         sodipodi:role="line"
         id="tspan4138"
         x="157.05124"
         y="510.0639"
         style="font-style:normal;font-variant:normal;font-weight:normal;font-stretch:normal;font-family:Ebrima;-inkscape-font-specification:Ebrima"><tspan
   style="fill:#666666"
   id="tspan4152">N</tspan>odex</tspan></text>
    <path
       style="opacity:1;fill:#333333;fill-opacity:1;stroke:none;stroke-opacity:1"
       d="m 160,392.36133 0,90 90,0 0,-90 -90,0 z m 50.71875,4.0332 a 45,45 0 0 1 30.10156,13.14844 l -6.20898,6.20898 a 7.5,7.5 0 0 1 2.20898,5.30664 7.5,7.5 0 0 1 -7.5,7.5 7.5,7.5 0 0 1 -5.30859,-2.20703 l -46.83008,46.83008 a 45,45 0 0 1 -11.64844,-43.4668 45,45 0 0 1 31.82032,-31.81836 45,45 0 0 1 13.36523,-1.50195 z m 13.29297,29.95703 10.59961,-10.59961 a 7.5,7.5 0 0 0 -5.29102,-2.19336 7.5,7.5 0 0 0 -7.5,7.5 7.5,7.5 0 0 0 2.19141,5.29297 z"
       id="rect4142"
       inkscape:connector-curvature="0" />
  </g>
</svg>
